<?xml version="1.0" encoding="UTF-8"?> <svg xmlns="http://www.w3.org/2000/svg" width="1548" height="227" viewBox="0 0 1548 227" fill="none"><path d="M90.4988 10.8027C98.3927 12.2676 102.34 14.5869 102.34 17.7607C102.665 19.7952 103.113 21.138 103.682 21.7891V24.8408C103.682 25.2477 101.933 25.8174 98.4333 26.5498C98.4333 27.9333 95.0561 28.8285 88.3015 29.2354C87.6505 29.7236 83.0932 31.7581 74.6296 35.3389C73.002 37.3734 67.5903 41.6051 58.3943 48.0342C57.0108 50.4756 54.8136 53.2832 51.8025 56.457C45.0479 62.7233 39.6361 69.1523 35.5671 75.7441C31.4981 83.9635 29.016 89.3753 28.1208 91.9795C24.6215 101.989 22.8718 109.598 22.8718 114.807C22.8718 129.699 24.6215 140.523 28.1208 147.277C29.016 150.288 31.4981 153.951 35.5671 158.264C35.5671 158.915 37.7644 160.542 42.1589 163.146C44.4376 163.391 45.9024 163.838 46.5535 164.489L48.7507 154.724C53.2266 142.354 58.6384 130.35 64.9861 118.713C69.0551 112.528 71.5372 109.191 72.4324 108.703V107.849H72.0662C71.822 107.849 70.642 108.133 68.5261 108.703C58.7605 109.273 52.6163 109.558 50.0935 109.558C46.2686 109.558 44.3562 108.256 44.3562 105.651C43.7052 105.651 42.4031 103.861 40.45 100.28C40.1244 98.734 39.1072 96.5368 37.3982 93.6885C35.9333 89.7008 35.2009 87.5036 35.2009 87.0967V84.5332C35.3637 82.7428 35.8113 81.8477 36.5437 81.8477H43.99C44.641 81.8477 45.2107 82.0104 45.699 82.3359C46.1873 82.0104 46.7569 81.8477 47.408 81.8477H47.8962C50.5818 81.8477 75.769 79.5283 123.458 74.8896H132.613C133.752 76.5986 134.485 77.4531 134.81 77.4531C138.635 77.4531 140.548 79.0807 140.548 82.3359V83.1904C137.537 86.8525 134.892 89.2126 132.613 90.2705C132.613 92.5492 130.009 93.6885 124.801 93.6885C122.929 95.3161 119.836 96.6589 115.523 97.7168C115.523 98.2051 109.379 99.792 97.0906 102.478C94.4864 103.861 93.1843 105.773 93.1843 108.215C92.2891 109.11 90.6615 112.609 88.3015 118.713L87.447 119.201L87.8132 120.056V121.398C87.0808 122.212 86.5111 123.514 86.1042 125.305L86.5925 126.281C86.5925 127.827 84.9649 132.181 81.7097 139.343C78.3731 147.806 76.1759 154.724 75.1179 160.095C80.489 156.351 84.7208 153.096 87.8132 150.329C92.1264 149.353 94.7712 148.498 95.7478 147.766C95.7478 147.44 95.9106 147.277 96.2361 147.277H97.9451C102.014 148.579 104.049 150.777 104.049 153.869L103.194 155.212V156.066C104.659 156.066 105.391 156.351 105.391 156.921V161.315C105.391 163.187 104.089 165.669 101.485 168.762C101.485 171.529 99.1251 174.621 94.405 178.039C94.405 181.864 93.3878 183.776 91.3533 183.776C91.3533 185.404 86.2263 187.316 75.9724 189.514C72.4731 189.514 70.7234 190.531 70.7234 192.565C70.2351 192.565 69.7875 195.902 69.3806 202.575C69.7061 203.715 69.8689 205.057 69.8689 206.604V206.97C69.8689 208.109 67.9565 209.004 64.1316 209.655L63.2771 209.167L62.4226 209.655C59.7371 209.493 58.3943 209.208 58.3943 208.801L56.197 209.167C48.059 209.167 43.99 207.295 43.99 203.552C43.0948 199.239 42.6472 196.309 42.6472 194.763V183.776C40.7755 183.776 35.2009 179.382 25.9236 170.593C12.4958 153.503 4.76473 138.854 2.73022 126.647C0.93986 120.544 0.0446777 111.755 0.0446777 100.28C0.0446777 83.0277 6.63647 65.3275 19.8201 47.1797C31.3761 34.8913 41.4672 26.265 50.0935 21.3008C56.1156 16.6621 63.7247 13.8952 72.9207 13C72.9207 12.349 78.78 11.6165 90.4988 10.8027ZM297.741 119.334C297.741 130.501 296.241 140.417 293.241 149.084C290.408 157.584 286.241 164.834 280.741 170.834C275.408 176.834 268.824 181.417 260.991 184.584C253.324 187.584 244.741 189.084 235.241 189.084C226.408 189.084 218.241 187.584 210.741 184.584C203.241 181.417 196.741 176.834 191.241 170.834C185.741 164.834 181.408 157.584 178.241 149.084C175.241 140.417 173.741 130.501 173.741 119.334C173.741 104.501 176.241 92.0006 181.241 81.834C186.241 71.5006 193.408 63.6673 202.741 58.334C212.074 52.834 223.158 50.084 235.991 50.084C248.158 50.084 258.824 52.834 267.991 58.334C277.324 63.6673 284.574 71.5006 289.741 81.834C295.074 92.0006 297.741 104.501 297.741 119.334ZM196.491 119.334C196.491 129.834 197.824 139.001 200.491 146.834C203.324 154.501 207.658 160.417 213.491 164.584C219.324 168.751 226.741 170.834 235.741 170.834C244.741 170.834 252.158 168.751 257.991 164.584C263.824 160.417 268.074 154.501 270.741 146.834C273.574 139.001 274.991 129.834 274.991 119.334C274.991 108.667 273.574 99.584 270.741 92.084C267.908 84.584 263.574 78.834 257.741 74.834C252.074 70.6673 244.658 68.584 235.491 68.584C221.824 68.584 211.908 73.084 205.741 82.084C199.574 91.084 196.491 103.501 196.491 119.334ZM272.741 17.334V35.084H198.491V17.334H272.741ZM463.37 11.4131C467.358 12.0641 470.043 12.3896 471.427 12.3896C471.996 12.0641 472.607 11.9014 473.258 11.9014L475.089 14.4648V16.54C471.02 23.6201 468.009 30.6595 466.055 37.6582C462.719 47.0169 458.813 64.7171 454.337 90.7588C454.337 93.2002 454.215 94.4209 453.97 94.4209C454.215 95.0719 454.337 95.6009 454.337 96.0078C453.848 97.2285 452.831 105.489 451.285 120.788C451.285 121.114 451.407 121.276 451.651 121.276C451.326 124.938 451.041 127.176 450.797 127.99L451.285 128.967C450.634 131.245 450.308 132.792 450.308 133.605V135.681C464.306 154.479 473.624 165.14 478.262 167.663L479.117 170.227C477.164 175.191 474.153 179.341 470.084 182.678C465.201 188.293 461.457 191.182 458.853 191.345C457.958 191.345 454.662 188.781 448.966 183.654H448.599L448.966 186.218C449.617 200.622 450.39 212.504 451.285 221.862V222.351C451.285 223.002 450.959 223.327 450.308 223.327H449.942L448.111 221.374C448.111 222.595 447.053 224.141 444.937 226.013H443.106L442.252 225.402C442.252 226.135 441.967 226.501 441.397 226.501H440.909C439.525 225.769 438.183 224.548 436.881 222.839V223.327C436.881 224.141 437.003 224.833 437.247 225.402C437.003 226.135 436.881 226.664 436.881 226.989H436.392L432.852 223.327C433.341 223.002 433.91 222.839 434.561 222.839C432.445 221.049 431.103 218.119 430.533 214.05L429.678 213.562H429.19L428.336 214.05C428.336 213.724 428.173 213.562 427.847 213.562L428.336 212.585C427.685 211.446 427.359 210.591 427.359 210.021H429.19L430.167 210.51V209.411C429.19 209.411 428.254 208.719 427.359 207.336V206.359C428.661 205.383 429.597 203.837 430.167 201.721H430.533V201.232L429.19 199.157V198.669L430.533 195.983H430.167L428.824 197.082H427.847C428.743 195.373 429.638 194.519 430.533 194.519V193.42C429.394 193.42 428.824 193.094 428.824 192.443C429.394 192.443 429.678 192.077 429.678 191.345V190.856C429.678 190.124 429.516 189.432 429.19 188.781L429.678 187.805C429.678 186.096 428.458 181.783 426.016 174.865C426.016 173.889 425.732 173.4 425.162 173.4C425.162 172.749 425.447 171.366 426.016 169.25C425.772 168.192 425.487 167.663 425.162 167.663L425.65 165.1L425.162 163.024C425.487 162.455 425.65 161.763 425.65 160.949C425.65 160.624 425.487 160.461 425.162 160.461L425.65 156.799V153.259C421.744 145.853 418.57 141.906 416.129 141.418C405.061 126.932 399.527 119.364 399.527 118.713C399.853 117.98 400.015 117.451 400.015 117.126C397.167 111.104 393.261 105.244 388.297 99.5479C384.39 94.014 381.094 88.887 378.409 84.167L378.897 83.0684C376.781 78.4297 375.723 75.8662 375.723 75.3779C372.143 67.484 369.742 60.9329 368.521 55.7246H369.01L370.719 57.3115V56.2129L370.352 53.6494C370.922 53.6494 371.207 53.1611 371.207 52.1846L370.719 49.499C371.207 49.499 371.817 48.319 372.55 45.959C372.224 45.3079 372.061 44.779 372.061 44.3721L373.038 43.8838L374.869 45.4707C374.869 44.0872 375.154 43.3955 375.723 43.3955C376.13 43.721 376.863 43.8838 377.921 43.8838C377.921 42.1748 378.246 41.3203 378.897 41.3203C379.467 41.3203 379.752 42.012 379.752 43.3955L381.094 42.2969C381.501 42.2969 381.949 42.8258 382.437 43.8838V44.3721H381.949L381.094 43.8838V44.3721C381.583 45.7555 382.03 46.4473 382.437 46.4473L383.414 45.959C386.995 52.8763 392.528 61.9909 400.015 73.3027C400.341 73.3027 405.264 79.4876 414.786 91.8574C423.168 101.786 427.522 106.75 427.847 106.75H428.336C428.905 100.972 429.638 96.0078 430.533 91.8574C430.533 91.5319 430.411 91.3691 430.167 91.3691C431.957 77.2904 435.09 61.7874 439.566 44.8604L443.106 30.9443C445.303 28.0146 447.704 23.0505 450.308 16.0518C450.308 14.2614 452.587 12.8779 457.144 11.9014L459.83 12.3896C462.19 12.1455 463.37 11.82 463.37 11.4131ZM371.207 12.3896C372.102 13.8545 372.55 15.5635 372.55 17.5166C368.399 37.943 366.324 54.626 366.324 67.5654V71.2275C366.324 71.96 366.161 72.6517 365.836 73.3027L366.324 74.2793L365.347 94.4209C365.673 94.9906 365.836 95.6823 365.836 96.4961L365.347 99.5479C365.347 99.9548 365.51 100.158 365.836 100.158L365.347 102.111C366.812 140.279 368.318 159.362 369.864 159.362L369.376 163.024C369.376 165.14 370.149 168.599 371.695 173.4C369.579 174.54 368.521 176.737 368.521 179.992C367.545 180.806 364.534 182.189 359.488 184.143H358.145C356.762 184.143 355.256 184.346 353.629 184.753C348.583 184.102 346.06 183.044 346.06 181.579C346.06 177.347 345.165 169.087 343.375 156.799C343.375 156.473 343.497 156.311 343.741 156.311L342.398 148.01C342.724 147.521 342.886 146.667 342.886 145.446L342.398 140.808C342.398 140.482 342.561 140.319 342.886 140.319L342.398 137.756C342.398 131.652 342.113 126.485 341.544 122.253L342.032 121.276L341.544 118.103C341.544 117.777 341.706 117.289 342.032 116.638L341.544 113.464V111.389L342.032 108.337C341.706 107.686 341.544 107.157 341.544 106.75L342.032 103.21L341.544 99.5479C342.113 95.1533 342.398 91.0436 342.398 87.2188V78.918L342.886 75.8662C342.561 75.2965 342.398 74.6048 342.398 73.791L343.375 73.3027H344.718C344.962 72.6517 345.084 71.96 345.084 71.2275V65.4902C345.735 65.1647 346.793 57.1081 348.258 41.3203C348.909 41.3203 349.356 39.2451 349.6 35.0947L352.286 28.8691L351.92 27.8926V27.4043C353.303 22.7656 354.483 19.8359 355.46 18.6152C355.785 19.1035 355.948 20.1208 355.948 21.667C356.355 21.667 357.087 20.2835 358.145 17.5166L359.122 18.127C360.017 16.6621 361.197 15.8076 362.662 15.5635C362.662 14.0986 364.33 13.2035 367.667 12.8779C368.236 13.2848 368.684 13.4883 369.01 13.4883C369.986 12.7559 370.719 12.3896 371.207 12.3896ZM596.827 10.8027C604.721 12.2676 608.668 14.5869 608.668 17.7607C608.993 19.7952 609.441 21.138 610.01 21.7891V24.8408C610.01 25.2477 608.261 25.8174 604.761 26.5498C604.761 27.9333 601.384 28.8285 594.63 29.2354C593.979 29.7236 589.421 31.7581 580.958 35.3389C579.33 37.3734 573.918 41.6051 564.722 48.0342C563.339 50.4756 561.142 53.2832 558.131 56.457C551.376 62.7233 545.964 69.1523 541.895 75.7441C537.826 83.9635 535.344 89.3753 534.449 91.9795C530.95 101.989 529.2 109.598 529.2 114.807C529.2 129.699 530.95 140.523 534.449 147.277C535.344 150.288 537.826 153.951 541.895 158.264C541.895 158.915 544.093 160.542 548.487 163.146C550.766 163.391 552.231 163.838 552.882 164.489L555.079 154.724C559.555 142.354 564.967 130.35 571.314 118.713C575.383 112.528 577.865 109.191 578.76 108.703V107.849H578.394C578.15 107.849 576.97 108.133 574.854 108.703C565.089 109.273 558.944 109.558 556.422 109.558C552.597 109.558 550.684 108.256 550.684 105.651C550.033 105.651 548.731 103.861 546.778 100.28C546.453 98.734 545.435 96.5368 543.726 93.6885C542.261 89.7008 541.529 87.5036 541.529 87.0967V84.5332C541.692 82.7428 542.139 81.8477 542.872 81.8477H550.318C550.969 81.8477 551.539 82.0104 552.027 82.3359C552.515 82.0104 553.085 81.8477 553.736 81.8477H554.224C556.91 81.8477 582.097 79.5283 629.786 74.8896H638.941C640.08 76.5986 640.813 77.4531 641.138 77.4531C644.963 77.4531 646.876 79.0807 646.876 82.3359V83.1904C643.865 86.8525 641.22 89.2126 638.941 90.2705C638.941 92.5492 636.337 93.6885 631.129 93.6885C629.257 95.3161 626.164 96.6589 621.851 97.7168C621.851 98.2051 615.707 99.792 603.419 102.478C600.815 103.861 599.512 105.773 599.512 108.215C598.617 109.11 596.99 112.609 594.63 118.713L593.775 119.201L594.141 120.056V121.398C593.409 122.212 592.839 123.514 592.432 125.305L592.921 126.281C592.921 127.827 591.293 132.181 588.038 139.343C584.701 147.806 582.504 154.724 581.446 160.095C586.817 156.351 591.049 153.096 594.141 150.329C598.455 149.353 601.099 148.498 602.076 147.766C602.076 147.44 602.239 147.277 602.564 147.277H604.273C608.342 148.579 610.377 150.777 610.377 153.869L609.522 155.212V156.066C610.987 156.066 611.719 156.351 611.719 156.921V161.315C611.719 163.187 610.417 165.669 607.813 168.762C607.813 171.529 605.453 174.621 600.733 178.039C600.733 181.864 599.716 183.776 597.681 183.776C597.681 185.404 592.554 187.316 582.301 189.514C578.801 189.514 577.052 190.531 577.052 192.565C576.563 192.565 576.116 195.902 575.709 202.575C576.034 203.715 576.197 205.057 576.197 206.604V206.97C576.197 208.109 574.285 209.004 570.46 209.655L569.605 209.167L568.751 209.655C566.065 209.493 564.722 209.208 564.722 208.801L562.525 209.167C554.387 209.167 550.318 207.295 550.318 203.552C549.423 199.239 548.975 196.309 548.975 194.763V183.776C547.104 183.776 541.529 179.382 532.252 170.593C518.824 153.503 511.093 138.854 509.058 126.647C507.268 120.544 506.373 111.755 506.373 100.28C506.373 83.0277 512.965 65.3275 526.148 47.1797C537.704 34.8913 547.795 26.265 556.422 21.3008C562.444 16.6621 570.053 13.8952 579.249 13C579.249 12.349 585.108 11.6165 596.827 10.8027ZM695.494 0.670898L697.447 1.52539C698.993 0.955729 700.214 0.670898 701.109 0.670898C701.109 1.15918 702.371 2.09505 704.893 3.47852C708.393 5.43164 711.526 8.8903 714.293 13.8545C716.571 13.8545 718.158 17.598 719.053 25.085H727.965C739.439 25.085 760.639 22.7249 791.563 18.0049C800.271 16.7842 804.95 16.1738 805.601 16.1738C808.124 16.6621 809.385 17.4352 809.385 18.4932L811.827 18.0049L812.193 18.9814L813.17 18.4932H823.546V19.958C822.488 19.958 821.552 20.4056 820.738 21.3008L819.273 20.4463H818.785C818.215 20.5277 817.93 20.8125 817.93 21.3008C818.5 21.4635 818.785 21.7891 818.785 22.2773C812.193 23.9049 808.897 25.6546 808.897 27.5264C808.328 27.5264 807.229 28.1367 805.601 29.3574C802.834 30.334 801.451 31.1071 801.451 31.6768V32.165H801.939L802.794 31.6768L803.282 32.6533L783.995 37.4141C783.669 37.4141 783.507 37.2513 783.507 36.9258C780.17 37.2513 778.135 37.8617 777.403 38.7568H776.06L775.572 39.7334C777.444 39.7334 778.38 40.3438 778.38 41.5645C777.973 42.2155 771.829 43.6396 759.947 45.8369C757.75 46.8135 755.552 47.3018 753.355 47.3018V47.668H755.308V48.6445H753.355C749.286 49.6211 743.345 50.557 735.533 51.4521H730.284C729.633 51.4521 729.023 51.6149 728.453 51.9404L727.476 51.4521L726.622 51.9404C726.052 51.6149 725.401 51.4521 724.669 51.4521V52.4287C726.215 59.7529 727.314 66.9551 727.965 74.0352C731.138 74.3607 733.498 74.5234 735.045 74.5234C740.66 74.5234 753.233 73.7503 772.764 72.2041C777.729 72.9365 780.211 73.5469 780.211 74.0352V74.5234H781.676L783.995 74.0352C784.076 74.6862 784.402 75.0117 784.971 75.0117L790.587 74.5234C792.133 74.7676 792.906 75.2559 792.906 75.9883V76.4766C792.906 77.1276 791.807 77.9007 789.61 78.7959C789.61 79.2028 788.064 80.627 784.971 83.0684C784.971 84.1263 783.385 84.8994 780.211 85.3877V85.876C781.838 85.876 782.652 86.1608 782.652 86.7305C781.838 87.707 777.118 88.6836 768.492 89.6602C765.318 92.7526 762.47 94.2988 759.947 94.2988C749.612 96.1706 743.508 97.1064 741.636 97.1064V97.5947H743.101V98.5713C736.347 98.8968 731.301 99.0596 727.965 99.0596H727.476C727.476 104.024 725.279 121.724 720.885 152.16C720.559 152.16 720.396 152.323 720.396 152.648C720.722 153.218 720.885 153.869 720.885 154.602C720.315 155.253 719.542 158.549 718.565 164.489C718.565 164.978 716.368 169.657 711.973 178.527C710.753 182.922 709.044 185.119 706.846 185.119C706.846 185.689 704.649 186.177 700.255 186.584L697.447 185.607C696.796 185.933 696.308 186.096 695.982 186.096C695.657 186.096 695.168 185.933 694.517 185.607L691.71 186.096H691.221L689.879 185.119L687.559 185.607C687.559 185.119 685.484 184.509 681.334 183.776L680.968 182.8L685.118 174.865C685.118 173.889 685.769 171.813 687.071 168.64C689.594 162.78 693.175 142.557 697.813 107.971C698.139 100.321 698.302 96.0892 698.302 95.2754C691.872 93.4036 687.641 91.0436 685.606 88.1953C682.432 85.7539 680.398 82.458 679.503 78.3076C678.445 77.6566 676.736 73.7503 674.376 66.5889L676.207 65.124C682.961 67.6468 690.326 69.8441 698.302 71.7158V71.2275C696.511 53.0798 695.25 44.0059 694.517 44.0059C682.636 38.7975 676.695 35.1761 676.695 33.1416C673.765 29.3167 671.731 25.5326 670.592 21.7891C670.185 21.7077 668.76 18.127 666.319 11.0469C667.377 10.3958 668.313 10.0703 669.127 10.0703C681.741 16.0111 688.983 18.9814 690.855 18.9814C689.228 10.5993 688.414 5.87923 688.414 4.82129C689.716 4.25163 690.815 3.9668 691.71 3.9668L691.221 2.99023C691.221 2.09505 692.646 1.32194 695.494 0.670898ZM815.489 21.3008C815.652 21.9518 815.977 22.2773 816.466 22.2773H816.954V21.3008H815.489ZM751.036 47.3018V47.668H752.989V47.3018H751.036ZM962.323 52.584V186.584H944.323L941.073 168.834H940.073C937.24 173.501 933.573 177.334 929.073 180.334C924.573 183.334 919.656 185.501 914.323 186.834C908.99 188.334 903.406 189.084 897.573 189.084C886.906 189.084 877.906 187.417 870.573 184.084C863.406 180.584 857.99 175.251 854.323 168.084C850.656 160.917 848.823 151.667 848.823 140.334V52.584H871.073V138.834C871.073 149.501 873.49 157.501 878.323 162.834C883.156 168.167 890.656 170.834 900.823 170.834C910.823 170.834 918.656 169.001 924.323 165.334C930.156 161.501 934.24 156.001 936.573 148.834C939.073 141.501 940.323 132.667 940.323 122.334V52.584H962.323ZM943.323 17.334V35.084H869.073V17.334H943.323ZM1116.49 11.1689C1118.53 11.1689 1120.44 13.1221 1122.23 17.0283C1128.74 24.9222 1134.07 37.3327 1138.22 54.2598C1139.69 62.235 1141.44 66.2227 1143.47 66.2227C1144.53 67.9316 1153.12 78.5924 1169.23 98.2051C1175.74 108.133 1178.99 113.749 1178.99 115.051C1179.56 117.085 1180.17 118.591 1180.83 119.567L1180.34 121.765H1180.83L1207.07 82.7021C1205.85 70.9834 1204.96 59.875 1204.39 49.377L1206.09 34.2402C1206.75 30.334 1207.07 28.2995 1207.07 28.1367H1207.93L1206.58 39.123H1207.07C1207.56 39.123 1208.58 34.2402 1210.12 24.4746L1209.63 23.6201V23.2539C1210.86 20.2428 1212.48 18.7373 1214.52 18.7373C1217.77 17.9235 1219.4 17.3538 1219.4 17.0283C1230.06 17.9235 1235.39 19.2256 1235.39 20.9346C1233.93 33.9554 1233.19 42.541 1233.19 46.6914H1234.17C1234.17 46.2031 1235.35 44.5755 1237.71 41.8086L1239.42 40.4658L1240.27 40.9541C1240.84 39.5706 1241.45 38.8382 1242.11 38.7568L1242.59 39.6113L1241.25 41.4424V41.8086H1241.62C1242.27 41.8086 1243.04 40.7913 1243.94 38.7568C1244.42 38.7568 1246.78 36.8444 1251.02 33.0195L1251.87 34.7285C1250 37.0885 1248.98 38.2686 1248.82 38.2686L1249.19 39.123V39.6113C1247.96 41.1576 1245.44 45.3079 1241.62 52.0625C1241.45 52.0625 1240.72 52.9577 1239.42 54.748V55.1143H1239.91C1240.48 54.8701 1240.93 54.748 1241.25 54.748L1237.22 60.9736H1238.57C1238.57 61.5433 1238.28 61.8281 1237.71 61.8281L1236.73 61.3398L1236.37 62.3164C1236.94 62.3164 1237.22 62.4385 1237.22 62.6826C1236.73 63.9847 1235.84 65.3275 1234.54 66.7109C1235.76 82.8242 1236.94 94.2174 1238.08 100.891C1238.08 101.216 1237.95 101.379 1237.71 101.379C1239.01 113.26 1240.19 120.34 1241.25 122.619C1241.25 122.945 1241.09 123.107 1240.76 123.107C1241.66 129.781 1243.12 137.186 1245.16 145.324C1244.91 145.812 1244.79 146.382 1244.79 147.033C1244.79 147.603 1245.08 149.393 1245.65 152.404C1245.32 152.404 1245.16 152.567 1245.16 152.893L1244.3 152.404H1243.94V152.893C1244.99 154.195 1246.3 159.362 1247.84 168.396C1247.6 168.396 1247.48 168.558 1247.48 168.884L1246.5 168.396H1246.13C1246.13 169.86 1245.81 170.593 1245.16 170.593C1245.48 171.162 1245.81 172.627 1246.13 174.987L1245.65 175.964L1246.13 176.818L1245.65 177.673L1246.13 179.992L1245.16 180.358C1245.81 181.742 1246.13 183.085 1246.13 184.387C1245.81 186.177 1245.36 187.072 1244.79 187.072C1244.22 187.072 1243.94 186.625 1243.94 185.729H1242.96C1242.96 186.869 1242.39 187.764 1241.25 188.415H1239.42C1236 185.892 1233.93 182.759 1233.19 179.016C1231.16 175.191 1229.98 173.278 1229.65 173.278V174.621H1228.8L1226.11 167.053H1225.63C1225.63 167.948 1225.34 168.396 1224.77 168.396L1223.06 164.367C1223.31 163.879 1223.43 163.309 1223.43 162.658C1222.86 162.658 1222.57 162.211 1222.57 161.315C1222.57 160.746 1222.86 159.851 1223.43 158.63C1222.86 158.63 1222.29 157.572 1221.72 155.456C1220.5 155.456 1219.16 151.184 1217.69 142.639L1218.18 139.953C1217.85 139.383 1217.69 138.936 1217.69 138.61C1218.02 138.61 1218.18 138.488 1218.18 138.244C1216.63 138.244 1215.74 136.169 1215.49 132.019H1216.84C1216.59 129.007 1216.14 127.502 1215.49 127.502V129.333H1214.52C1211.91 118.509 1210.61 112.284 1210.61 110.656H1209.63C1206.79 116.19 1204.14 120.34 1201.7 123.107H1201.21L1201.7 123.962C1196.41 130.716 1193.77 135.599 1193.77 138.61C1194.01 139.18 1194.13 139.628 1194.13 139.953C1191.77 143.29 1190.59 145.08 1190.59 145.324C1191.57 148.254 1192.46 150.166 1193.28 151.062C1192.95 151.631 1192.79 152.079 1192.79 152.404L1193.28 153.259C1192.95 153.828 1192.79 154.276 1192.79 154.602C1193.6 154.602 1194.21 155.782 1194.62 158.142H1193.77C1193.77 159.118 1194.34 160.461 1195.47 162.17L1194.62 162.658C1194.29 162.089 1194.13 161.641 1194.13 161.315H1193.28C1193.28 161.641 1193.11 162.089 1192.79 162.658C1193.44 162.74 1193.77 163.024 1193.77 163.513V165.71C1193.77 166.198 1193.16 166.646 1191.93 167.053C1189.33 165.995 1186.81 163.92 1184.37 160.827L1182.17 159.484C1182.17 160.054 1181.88 160.339 1181.31 160.339C1181.31 159.932 1180.87 159.525 1179.97 159.118C1179.08 159.769 1176.11 165.059 1171.06 174.987L1167.03 181.213L1166.18 180.847C1165.12 181.579 1163.49 182.312 1161.29 183.044L1160.81 182.189C1158.36 183.085 1156.74 183.532 1155.92 183.532C1154.78 183.288 1154.21 182.963 1154.21 182.556C1153.64 182.881 1153.2 183.044 1152.87 183.044C1149.37 181.986 1147.46 181.254 1147.13 180.847C1147.13 179.626 1146.97 178.446 1146.65 177.307C1149.82 171.773 1154.09 163.472 1159.46 152.404C1163.7 145.731 1166.1 142.313 1166.67 142.15C1161.13 132.954 1154.46 123.636 1146.65 114.196V114.685L1147.13 115.539C1146.81 116.109 1146.65 116.556 1146.65 116.882L1147.13 119.079H1146.65L1147.13 119.934V125.793C1146.24 148.335 1144.61 164.733 1142.25 174.987C1141.28 175.638 1140.38 175.964 1139.57 175.964C1139.57 175.638 1139.4 175.476 1139.08 175.476C1138.18 178.568 1135.99 184.509 1132.49 193.298C1132.49 193.542 1132.32 193.664 1132 193.664C1131.67 193.176 1131.51 192.606 1131.51 191.955H1130.17C1129.03 193.745 1128.3 194.641 1127.97 194.641L1126.63 193.664L1123.57 197.692C1123.25 197.123 1123.09 196.675 1123.09 196.35H1122.72L1120.89 197.692H1119.06C1118.49 197.692 1118.2 197.408 1118.2 196.838C1118.2 195.699 1118.65 191.996 1119.55 185.729C1119.3 185.729 1118.85 185.282 1118.2 184.387L1118.69 182.189V181.701C1118.69 180.155 1118.53 178.812 1118.2 177.673L1119.06 169.25L1118.69 168.396C1119.83 163.594 1120.4 157.531 1120.4 150.207C1120.16 149.637 1120.03 149.19 1120.03 148.864H1120.4L1120.03 148.01V135.559C1118 92.3457 1114.75 70.7393 1110.27 70.7393C1101.72 61.1364 1094.03 54.0156 1087.2 49.377V49.0107H1087.56C1088.13 49.2549 1088.58 49.377 1088.91 49.377C1088.26 47.9935 1085.45 45.6335 1080.48 42.2969V40.4658C1080.48 37.292 1086.83 34.3623 1099.53 31.6768L1100.5 32.043L1101.36 31.6768C1102.33 31.6768 1103.68 32.2464 1105.39 33.3857H1105.75V32.043C1104.86 30.9036 1104.41 30.0085 1104.41 29.3574C1105.06 29.3574 1105.39 29.0726 1105.39 28.5029C1103.76 24.7594 1101.97 21.9518 1100.02 20.0801V17.8828C1100.1 16.7435 1102.01 15.6855 1105.75 14.709C1105.75 13.7324 1109.33 12.5524 1116.49 11.1689ZM1100.87 59.1426C1100.87 59.5495 1101.64 60.2819 1103.19 61.3398H1103.56C1103.56 60.9329 1102.82 60.2005 1101.36 59.1426H1100.87ZM1354.18 50.334C1370.51 50.334 1382.6 53.9173 1390.43 61.084C1398.26 68.2506 1402.18 79.6673 1402.18 95.334V186.584H1386.18L1381.93 167.584H1380.93C1377.1 172.417 1373.1 176.501 1368.93 179.834C1364.93 183.001 1360.26 185.334 1354.93 186.834C1349.76 188.334 1343.43 189.084 1335.93 189.084C1327.93 189.084 1320.68 187.667 1314.18 184.834C1307.85 182.001 1302.85 177.667 1299.18 171.834C1295.51 165.834 1293.68 158.334 1293.68 149.334C1293.68 136.001 1298.93 125.751 1309.43 118.584C1319.93 111.251 1336.1 107.251 1357.93 106.584L1380.68 105.834V97.834C1380.68 86.6673 1378.26 78.9173 1373.43 74.584C1368.6 70.2506 1361.76 68.084 1352.93 68.084C1345.93 68.084 1339.26 69.1673 1332.93 71.334C1326.6 73.334 1320.68 75.6673 1315.18 78.334L1308.43 61.834C1314.26 58.6673 1321.18 56.0006 1329.18 53.834C1337.18 51.5006 1345.51 50.334 1354.18 50.334ZM1360.68 121.834C1344.01 122.501 1332.43 125.167 1325.93 129.834C1319.6 134.501 1316.43 141.084 1316.43 149.584C1316.43 157.084 1318.68 162.584 1323.18 166.084C1327.85 169.584 1333.76 171.334 1340.93 171.334C1352.26 171.334 1361.68 168.251 1369.18 162.084C1376.68 155.751 1380.43 146.084 1380.43 133.084V121.084L1360.68 121.834ZM1389.43 17.334V35.084H1315.18V17.334H1389.43ZM1523.06 11.0469C1525.25 11.3724 1526.48 11.5352 1526.72 11.5352L1528.92 11.0469L1529.89 11.5352L1530.75 11.0469C1535.63 12.5931 1538.97 14.8717 1540.76 17.8828C1540.76 18.6152 1541.94 20.2835 1544.3 22.8877V26.0615C1545.19 26.0615 1545.64 26.3464 1545.64 26.916C1545.64 27.974 1542.95 29.0319 1537.58 30.0898C1531.97 32.1243 1524.89 36.0306 1516.34 41.8086C1515.45 42.541 1515 42.9886 1515 43.1514V43.6396C1524.12 50.8825 1530.87 57.9626 1535.26 64.8799C1543.4 76.68 1547.47 88.765 1547.47 101.135C1547.47 101.379 1547.35 101.501 1547.11 101.501C1547.43 101.908 1547.72 104.024 1547.96 107.849C1547.96 118.103 1543.12 128.804 1533.43 139.953C1521.06 154.602 1511.75 164.855 1505.48 170.715H1502.67C1501.94 170.145 1501.37 169.86 1500.96 169.86L1498.64 170.349V169.86L1497.79 170.349H1496.45C1493.6 168.233 1492.09 167.175 1491.93 167.175H1490.1L1489.12 167.541L1488.76 166.687C1489 166.117 1489.12 165.669 1489.12 165.344C1488.88 165.344 1488.76 165.181 1488.76 164.855L1487.78 165.344H1486.92V164.367L1489.12 157.653L1498.16 146.301V145.935H1497.3V144.958L1498.16 143.615C1497.91 143.127 1497.79 142.517 1497.79 141.784C1511.54 125.671 1519.23 112.731 1520.86 102.966C1521.43 98.8154 1521.71 95.6416 1521.71 93.4443C1521.71 79.04 1516.91 65.3275 1507.31 52.3066L1505.85 51.3301C1485.34 73.7096 1475.08 99.3444 1475.08 128.234V131.896C1475.08 145.894 1479.03 157.938 1486.92 168.029C1492.38 172.261 1500.68 175.72 1511.83 178.405H1515C1517.36 179.707 1518.54 180.643 1518.54 181.213V181.579L1518.05 183.898C1518.38 183.898 1518.54 184.021 1518.54 184.265L1506.33 186.584C1496.89 184.468 1488.59 181.132 1481.43 176.574C1467.52 167.948 1458.48 158.63 1454.33 148.62C1451.32 140.401 1449.82 130.432 1449.82 118.713V112.854C1450.14 97.9609 1454.37 81.0745 1462.51 62.1943C1465.93 56.4977 1470.45 50.1501 1476.06 43.1514C1476.3 42.5003 1478.71 39.2044 1483.26 33.2637C1479.03 29.9271 1476.47 26.7533 1475.57 23.7422C1475.17 23.7422 1474.72 23.2946 1474.23 22.3994V21.9111C1474.31 21.3415 1474.6 21.0566 1475.08 21.0566L1476.91 22.8877L1478.26 21.9111H1478.75L1479.72 22.3994C1479.72 21.8298 1480.17 21.5449 1481.07 21.5449C1487.09 25.1257 1490.38 26.916 1490.95 26.916C1499.99 19.1035 1508.73 14.1393 1517.2 12.0234L1523.06 11.0469Z" fill="#351700"></path></svg> 