<?xml version="1.0" encoding="UTF-8"?> <svg xmlns="http://www.w3.org/2000/svg" width="221" height="86" viewBox="0 0 221 86" fill="none"><path d="M179.473 18.9771C126.161 42.2189 46.6221 24.3318 46.6221 24.3318V60.6615C93.9763 88.9733 182.361 63.9085 182.361 63.9085L179.473 18.9771Z" fill="#E9D8A9"></path><path d="M173.552 13.9068L180.405 69.9607L214.4 65.5886L215.661 12.3545L173.552 13.9068Z" fill="#056445"></path><path d="M206.851 4.109C206.851 6.2452 202.958 7.98265 198.17 7.98265C193.381 7.98265 189.488 6.2452 189.488 4.109C189.488 1.9728 193.381 0.235352 198.17 0.235352C202.958 0.235352 206.851 1.9728 206.851 4.109Z" fill="#351700"></path><path d="M167.721 10.2326L169.347 16.2994L219.406 15.3025L220.667 7.98242L167.721 10.2326Z" fill="#351700"></path><path d="M175.67 68.9644L219.04 63.4814L220.666 71.4993L175.67 74.134V68.9644Z" fill="#351700"></path><path d="M209.739 78.0074C209.739 80.1436 205.846 81.8811 201.057 81.8811C196.269 81.8811 192.376 80.1436 192.376 78.0074C192.376 75.8712 196.269 74.1338 201.057 74.1338C205.846 74.1338 209.739 75.8712 209.739 78.0074Z" fill="#351700"></path><path d="M6.12012 15.4737L51.8477 13.4941V71.67L15.1669 73.0372L6.12012 15.4737Z" fill="#056445"></path><path d="M33.9544 6.359C33.9544 8.4952 30.0615 10.2326 25.2731 10.2326C20.4847 10.2326 16.5918 8.4952 16.5918 6.359C16.5918 4.2228 20.4847 2.48535 25.2731 2.48535C30.0615 2.48535 33.9544 4.2228 33.9544 6.359Z" fill="#351700"></path><path d="M10.1045 70.6588L56.7277 69.9609V76.8537L10.1045 75.4439V70.6588Z" fill="#351700"></path><path d="M0.875 12.3549L2.86712 18.265L54.5711 16.4421V10.2329L0.875 12.3549Z" fill="#351700"></path><path d="M42.636 81.5817C42.636 83.7179 38.7432 85.4553 33.9547 85.4553C29.1663 85.4553 25.2734 83.7179 25.2734 81.5817C25.2734 79.4455 29.1663 77.708 33.9547 77.708C38.7432 77.708 42.636 79.4455 42.636 81.5817Z" fill="#351700"></path><path d="M67.5701 36.859C67.4488 37.0084 67.3181 37.083 67.1781 37.083L66.1001 37.237L64.5181 37.279C64.5181 37.9324 64.6068 38.8984 64.7841 40.177C64.8961 40.989 64.9521 41.4277 64.9521 41.493V41.871L65.9181 47.695C65.9181 47.7977 65.8808 47.8817 65.8061 47.947C65.6008 48.031 65.1854 48.2924 64.5601 48.731C64.4388 48.8524 64.2614 49.0017 64.0281 49.179C63.9161 49.263 63.7388 49.305 63.4961 49.305C63.3934 49.305 63.3328 49.2864 63.3141 49.249C63.3048 49.2397 63.2768 49.1464 63.2301 48.969L63.1321 46.757L63.3421 37.545C63.3141 37.517 63.2628 37.503 63.1881 37.503L60.9761 38.147C60.8174 38.1097 60.7148 38.0817 60.6681 38.063C60.5748 38.0257 60.5001 37.9604 60.4441 37.867V36.355H63.3981V35.809C63.4541 35.725 63.5568 35.6224 63.7061 35.501C63.8554 35.3704 63.9674 35.305 64.0421 35.305C64.1261 35.305 64.2148 35.347 64.3081 35.431V36.439C64.5694 36.3737 64.9008 36.341 65.3021 36.341C65.5354 36.341 65.8854 36.3597 66.3521 36.397C66.8188 36.425 67.1688 36.439 67.4021 36.439C67.4208 36.467 67.4768 36.523 67.5701 36.607V36.859ZM76.9166 42.697C76.9166 42.8557 76.8046 43.229 76.5806 43.817C76.31 44.5264 76.0813 45.0444 75.8946 45.371C75.652 45.819 75.3066 46.2904 74.8586 46.785C74.14 47.5877 73.5006 48.059 72.9406 48.199C72.8753 48.2177 72.8146 48.3157 72.7586 48.493C72.7026 48.6797 72.6746 48.8197 72.6746 48.913V49.207L72.5766 49.319H72.2826C72.264 49.319 72.0446 49.1884 71.6246 48.927C69.8886 47.8537 68.9226 46.5004 68.7266 44.867L68.6706 43.117L68.9646 41.787C69.1886 41.1617 69.394 40.471 69.5806 39.715C69.6926 39.267 70.0986 38.609 70.7986 37.741C71.536 36.817 72.0913 36.355 72.4646 36.355C72.5206 36.355 72.5813 36.3877 72.6466 36.453L72.7306 35.375C72.7493 35.375 72.7866 35.3657 72.8426 35.347C72.8986 35.3284 72.9406 35.319 72.9686 35.319C73.1086 35.319 73.3233 35.389 73.6126 35.529C73.7526 35.6597 73.9533 35.837 74.2146 36.061C75.2506 36.9477 76.044 38.2124 76.5946 39.855L76.9166 41.367V42.697ZM75.1386 41.563C75.092 40.919 74.8726 40.2424 74.4806 39.533C74.126 38.889 73.692 38.3244 73.1786 37.839C73.0573 37.783 72.936 37.7224 72.8146 37.657C72.656 37.5637 72.5766 37.4704 72.5766 37.377V37.069C71.5126 38.0957 70.8733 39.309 70.6586 40.709L70.4206 42.263L70.3226 42.683V43.817C70.3226 44.2277 70.4766 44.7504 70.7846 45.385C71.102 46.0477 71.424 46.4724 71.7506 46.659C71.9933 46.799 72.446 46.9577 73.1086 47.135L72.9686 47.471C73.5193 47.0137 73.9906 46.3837 74.3826 45.581C74.756 44.825 74.9893 44.069 75.0826 43.313C75.1573 42.6877 75.176 42.1044 75.1386 41.563ZM86.072 36.859C85.9506 37.0084 85.82 37.083 85.68 37.083L84.602 37.237L83.02 37.279C83.02 37.9324 83.1086 38.8984 83.286 40.177C83.398 40.989 83.454 41.4277 83.454 41.493V41.871L84.42 47.695C84.42 47.7977 84.3826 47.8817 84.308 47.947C84.1026 48.031 83.6873 48.2924 83.062 48.731C82.9406 48.8524 82.7633 49.0017 82.53 49.179C82.418 49.263 82.2406 49.305 81.998 49.305C81.8953 49.305 81.8346 49.2864 81.816 49.249C81.8066 49.2397 81.7786 49.1464 81.732 48.969L81.634 46.757L81.844 37.545C81.816 37.517 81.7646 37.503 81.69 37.503L79.478 38.147C79.3193 38.1097 79.2166 38.0817 79.17 38.063C79.0766 38.0257 79.002 37.9604 78.946 37.867V36.355H81.9V35.809C81.956 35.725 82.0586 35.6224 82.208 35.501C82.3573 35.3704 82.4693 35.305 82.544 35.305C82.628 35.305 82.7166 35.347 82.81 35.431V36.439C83.0713 36.3737 83.4026 36.341 83.804 36.341C84.0373 36.341 84.3873 36.3597 84.854 36.397C85.3206 36.425 85.6706 36.439 85.904 36.439C85.9226 36.467 85.9786 36.523 86.072 36.607V36.859ZM94.1725 47.247C94.0792 47.3777 93.6965 48.0217 93.0245 49.179C92.9685 49.2724 92.8565 49.319 92.6885 49.319C92.4832 49.319 92.3712 49.207 92.3525 48.983L92.2685 48.087C92.2218 47.6017 92.1425 46.6637 92.0305 45.273C91.9465 44.237 91.8532 43.453 91.7505 42.921L90.9105 42.963C90.8358 42.9537 90.7332 42.991 90.6025 43.075L90.8125 47.499H90.3505L89.2025 47.177C88.6892 47.0277 88.4418 46.8737 88.4605 46.715L88.9085 43.411C88.8338 43.3924 88.5772 43.4764 88.1385 43.663L87.4805 43.943C87.4245 43.943 87.3078 43.887 87.1305 43.775L87.3965 42.865C87.4245 42.697 87.4618 42.501 87.5085 42.277C87.5832 41.9597 87.6952 41.801 87.8445 41.801H89.2865L90.8125 36.677V35.333H90.9105C91.0785 35.333 91.2652 35.627 91.4705 36.215C91.5452 36.439 91.6805 36.8497 91.8765 37.447C92.0912 38.091 92.2918 38.721 92.4785 39.337C92.6185 39.7944 92.8752 40.793 93.2485 42.333C93.3885 42.3797 93.5892 42.4684 93.8505 42.599L93.7945 42.949C93.7198 42.9117 93.6452 42.893 93.5705 42.893C93.5052 42.893 93.4352 42.907 93.3605 42.935L94.1725 47.247ZM91.6525 41.955L91.4145 39.995C91.3958 39.8084 91.2698 39.2064 91.0365 38.189L90.9805 38.497C90.9712 38.5437 90.8825 39.393 90.7145 41.045C90.7052 41.1384 90.6912 41.3017 90.6725 41.535C90.6538 41.675 90.6585 41.773 90.6865 41.829H90.7705L91.3165 41.955H91.6525ZM102.394 47.023L101.96 47.177H100.504L100.014 47.261L98.1797 47.597L97.4657 47.905V48.605L97.5777 49.053V49.305H96.9617L96.7377 48.773V48.003H96.2477L96.1217 47.891C96.1683 47.7697 96.327 47.625 96.5977 47.457L96.6117 45.133C96.6117 44.713 96.593 44.1297 96.5557 43.383C96.5277 42.823 96.4903 42.2397 96.4437 41.633C96.4063 41.0917 96.3877 40.8584 96.3877 40.933V40.163C96.3877 40.2284 96.3877 40.1817 96.3877 40.023C96.397 39.8644 96.4063 39.645 96.4157 39.365L96.4717 36.523C96.4717 36.3457 96.509 36.2104 96.5837 36.117C96.621 36.0984 96.7097 36.0517 96.8497 35.977C96.9057 35.949 96.999 35.935 97.1297 35.935L98.8377 35.305C98.9963 35.3704 99.0757 35.4684 99.0757 35.599C99.085 36.187 99.0617 36.6864 99.0057 37.097C98.9683 37.3957 98.8237 38.3664 98.5717 40.009C98.3943 41.1757 98.3057 41.8104 98.3057 41.913V42.389L97.5637 47.037C97.5823 47.065 97.6103 47.079 97.6477 47.079L102.044 43.971C102.128 43.971 102.184 43.9944 102.212 44.041C102.333 44.545 102.394 44.8717 102.394 45.021V47.023ZM120.524 46.799L118.326 49.095C118.196 49.235 118.028 49.305 117.822 49.305C117.654 49.305 117.57 49.2117 117.57 49.025C117.561 48.5677 117.542 48.1664 117.514 47.821C117.496 47.6344 117.514 47.499 117.57 47.415H116.996L113.426 49.249H113.16L113.062 48.885V47.023L113.16 46.519C113.87 46.5004 114.322 46.477 114.518 46.449L115.512 46.309L117.22 46.421C116.884 44.377 115.862 41.7917 114.154 38.665C114.033 38.441 113.916 38.3057 113.804 38.259L113.02 38.469L112.586 38.301L113.146 37.321L112.894 36.999C112.96 36.8217 113.062 36.733 113.202 36.733C113.24 36.733 113.296 36.7517 113.37 36.789C113.454 36.8264 113.515 36.845 113.552 36.845C113.58 36.845 113.795 36.7237 114.196 36.481C114.598 36.229 114.845 36.0844 114.938 36.047C115.657 35.7577 116.46 35.5477 117.346 35.417L118.004 35.319H119.292L119.558 37.321L119.39 37.853C118.317 37.5824 117.752 37.447 117.696 37.447H116.086C115.918 37.447 115.638 37.5217 115.246 37.671C114.929 37.7924 114.719 37.881 114.616 37.937L120.524 46.799ZM130.986 46.687L129.096 49.025C128.947 49.2117 128.812 49.305 128.69 49.305C128.634 49.305 128.48 49.2257 128.228 49.067C127.986 48.9177 127.869 48.8384 127.878 48.829V46.253L128.004 46.281C127.827 46.617 127.36 47.023 126.604 47.499C125.783 48.0124 125.12 48.269 124.616 48.269C123.123 48.269 122.33 47.219 122.236 45.119L122.124 42.557L122.292 38.553C122.33 37.5824 122.423 36.7564 122.572 36.075L124.112 35.739C124.159 35.739 124.22 35.7624 124.294 35.809C124.378 35.8464 124.42 35.8884 124.42 35.935C124.42 36.4577 124.36 37.2417 124.238 38.287C124.117 39.323 124.056 40.1024 124.056 40.625C124.056 40.849 124.07 41.1057 124.098 41.395L124.308 43.537C124.43 44.769 124.719 45.595 125.176 46.015C125.419 46.239 125.788 46.3884 126.282 46.463L126.856 46.351C126.894 46.351 126.945 46.3417 127.01 46.323C127.085 46.3044 127.141 46.295 127.178 46.295L127.878 45.707V35.361H127.696C128.303 35.3517 128.62 35.3657 128.648 35.403C128.639 36.0097 128.714 36.7284 128.872 37.559C128.966 38.0444 129.138 38.9124 129.39 40.163C129.568 41.0684 130.006 42.487 130.706 44.419C130.753 44.559 130.8 44.867 130.846 45.343L130.86 45.497C130.944 46.421 130.986 46.8177 130.986 46.687ZM138.859 40.247C138.859 41.0404 138.392 41.829 137.459 42.613C136.609 43.3317 135.765 43.747 134.925 43.859C134.803 43.8777 134.589 43.9804 134.281 44.167L134.197 47.779L134.043 49.305H133.637C133.506 49.1744 133.441 49.0577 133.441 48.955V48.731L133.007 46.281L132.923 38.595L133.161 36.131C134.197 35.5897 134.897 35.319 135.261 35.319H135.695L135.401 36.117C135.531 36.0237 135.667 35.879 135.807 35.683C135.891 35.5617 136.003 35.501 136.143 35.501C136.18 35.5197 136.343 35.5944 136.633 35.725C137.127 35.9397 137.617 36.3737 138.103 37.027C138.607 37.7084 138.859 38.3057 138.859 38.819V40.247ZM136.787 39.911C136.787 39.435 136.628 38.987 136.311 38.567C135.993 38.1377 135.606 37.8577 135.149 37.727L134.855 39.197C134.593 40.5037 134.463 41.6937 134.463 42.767C134.463 43.019 134.472 43.2524 134.491 43.467C134.752 43.2617 135.097 42.991 135.527 42.655C135.779 42.459 136.049 42.0344 136.339 41.381C136.637 40.7277 136.787 40.2377 136.787 39.911ZM146.633 40.247C146.633 41.0404 146.166 41.829 145.233 42.613C144.384 43.3317 143.539 43.747 142.699 43.859C142.578 43.8777 142.363 43.9804 142.055 44.167L141.971 47.779L141.817 49.305H141.411C141.28 49.1744 141.215 49.0577 141.215 48.955V48.731L140.781 46.281L140.697 38.595L140.935 36.131C141.971 35.5897 142.671 35.319 143.035 35.319H143.469L143.175 36.117C143.306 36.0237 143.441 35.879 143.581 35.683C143.665 35.5617 143.777 35.501 143.917 35.501C143.954 35.5197 144.118 35.5944 144.407 35.725C144.902 35.9397 145.392 36.3737 145.877 37.027C146.381 37.7084 146.633 38.3057 146.633 38.819V40.247ZM144.561 39.911C144.561 39.435 144.402 38.987 144.085 38.567C143.768 38.1377 143.38 37.8577 142.923 37.727L142.629 39.197C142.368 40.5037 142.237 41.6937 142.237 42.767C142.237 43.019 142.246 43.2524 142.265 43.467C142.526 43.2617 142.872 42.991 143.301 42.655C143.553 42.459 143.824 42.0344 144.113 41.381C144.412 40.7277 144.561 40.2377 144.561 39.911ZM154.645 47.023L154.211 47.177H152.755L152.265 47.261L150.431 47.597L149.717 47.905V48.605L149.829 49.053V49.305H149.213L148.989 48.773V48.003H148.499L148.373 47.891C148.42 47.7697 148.579 47.625 148.849 47.457L148.863 45.133C148.863 44.713 148.845 44.1297 148.807 43.383C148.779 42.823 148.742 42.2397 148.695 41.633C148.658 41.0917 148.639 40.8584 148.639 40.933V40.163C148.639 40.2284 148.639 40.1817 148.639 40.023C148.649 39.8644 148.658 39.645 148.667 39.365L148.723 36.523C148.723 36.3457 148.761 36.2104 148.835 36.117C148.873 36.0984 148.961 36.0517 149.101 35.977C149.157 35.949 149.251 35.935 149.381 35.935L151.089 35.305C151.248 35.3704 151.327 35.4684 151.327 35.599C151.337 36.187 151.313 36.6864 151.257 37.097C151.22 37.3957 151.075 38.3664 150.823 40.009C150.646 41.1757 150.557 41.8104 150.557 41.913V42.389L149.815 47.037C149.834 47.065 149.862 47.079 149.899 47.079L154.295 43.971C154.379 43.971 154.435 43.9944 154.463 44.041C154.585 44.545 154.645 44.8717 154.645 45.021V47.023ZM163.13 35.557L160.12 41.325L159.994 42.207C160.442 43.7937 160.853 45.1517 161.226 46.281C161.245 46.3277 161.31 46.4864 161.422 46.757C161.516 46.9717 161.562 47.0977 161.562 47.135C161.562 47.191 161.278 47.4897 160.708 48.031L159.756 48.927C159.71 48.9644 159.467 49.095 159.028 49.319C159.01 49.263 158.986 48.8384 158.958 48.045C158.93 47.2144 158.935 46.7244 158.972 46.575L159.35 42.305L156.298 37.839L157.796 36.173H158.02C158.039 36.1917 158.067 36.2244 158.104 36.271C158.179 36.9617 158.38 37.6944 158.706 38.469C158.809 38.7024 159.145 39.407 159.714 40.583L160.078 38.427L160.372 35.963L160.722 35.781L160.988 35.823L161.534 35.655C162.076 35.487 162.496 35.375 162.794 35.319C162.944 35.319 163.056 35.3984 163.13 35.557ZM166.995 39.435L166.407 40.401H166.169C166.132 40.401 166.048 40.3684 165.917 40.303C165.787 40.2377 165.698 40.2004 165.651 40.191C165.278 40.107 164.961 39.967 164.699 39.771C164.373 39.5284 164.209 39.2437 164.209 38.917C164.209 38.7397 164.396 38.5484 164.769 38.343C165.096 38.1657 165.297 38.0817 165.371 38.091C165.595 38.1284 165.903 38.231 166.295 38.399C166.762 38.6044 166.995 38.7864 166.995 38.945V39.435ZM167.121 42.655C167.121 43.047 167.019 43.3924 166.813 43.691C166.589 44.027 166.286 44.195 165.903 44.195C165.605 44.195 165.311 44.097 165.021 43.901C164.685 43.6864 164.531 43.439 164.559 43.159C164.662 41.9924 165.068 41.4324 165.777 41.479C166.104 41.4977 166.407 41.619 166.687 41.843C166.977 42.067 167.121 42.3377 167.121 42.655ZM86.9698 49.655C86.9698 49.767 86.9184 50.005 86.8158 50.369C86.6944 50.817 86.6244 51.0877 86.6058 51.181C86.5311 51.6477 86.4424 52.3244 86.3398 53.211C86.2651 53.8737 86.1858 54.6157 86.1018 55.437C85.9804 56.641 85.9198 57.621 85.9198 58.377C85.9198 58.7597 85.9338 59.0537 85.9618 59.259L86.2698 61.485V63.277H85.7938L83.5678 62.717H83.1758L82.2658 62.073L85.1358 52.595C84.8091 52.6884 84.4078 52.9824 83.9318 53.477C83.4651 53.9624 83.2598 54.205 83.3158 54.205C83.1011 54.205 82.9004 54.1117 82.7138 53.925L82.7698 53.085C82.8258 52.189 82.9844 51.657 83.2458 51.489C83.5444 51.2837 83.9318 51.1064 84.4078 50.957C84.4358 50.9477 84.8511 50.8357 85.6538 50.621C85.6724 50.6024 85.8031 50.327 86.0458 49.795C86.1951 49.4684 86.3864 49.305 86.6198 49.305C86.8531 49.305 86.9698 49.4217 86.9698 49.655ZM103.723 58.307C103.714 58.3537 103.709 58.3957 103.709 58.433C103.709 58.461 103.714 58.4844 103.723 58.503C103.602 58.8764 103.439 59.1937 103.233 59.455C103.084 59.6417 102.431 60.2904 101.273 61.401C99.9386 62.6797 99.1873 63.319 99.0193 63.319H98.7813L97.1993 61.541C97.2366 61.4197 97.3813 61.317 97.6333 61.233C97.988 61.1117 98.184 61.037 98.2213 61.009L97.9133 58.629L97.6753 55.087L97.7453 52.021L97.8713 51.181C98.59 50.9384 98.9633 50.817 98.9913 50.817H99.2573C99.3413 50.6864 99.402 50.4577 99.4393 50.131C99.486 49.739 99.5186 49.5244 99.5373 49.487C99.528 49.5057 99.556 49.515 99.6213 49.515C99.5186 49.515 99.57 49.4824 99.7753 49.417C99.9806 49.3517 100.111 49.319 100.167 49.319C100.606 49.319 101.138 49.515 101.763 49.907C102.398 50.2897 102.818 50.677 103.023 51.069C103.079 51.1344 103.149 51.223 103.233 51.335C103.429 51.6524 103.527 51.9184 103.527 52.133V53.365C103.527 53.7477 103.238 54.1584 102.659 54.597C102.193 54.9517 101.763 55.1944 101.371 55.325C102.221 56.1184 102.715 56.5944 102.855 56.753C103.331 57.285 103.621 57.803 103.723 58.307ZM101.875 53.281V53.085C101.875 52.7677 101.707 52.3897 101.371 51.951C101.063 51.5497 100.741 51.3304 100.405 51.293L99.5653 51.209C99.444 52.0864 99.3506 53.435 99.2853 55.255H99.4953C99.6073 55.255 99.8733 55.1617 100.293 54.975C100.713 54.779 100.984 54.6344 101.105 54.541C101.507 54.233 101.763 53.813 101.875 53.281ZM102.155 57.929C102.155 57.4904 101.987 57.0377 101.651 56.571C101.325 56.095 100.956 55.7637 100.545 55.577L99.8873 55.787H99.2433L99.0473 60.687H99.1873C100.083 60.2484 100.723 59.8844 101.105 59.595C101.805 59.063 102.155 58.5077 102.155 57.929ZM108.33 61.639C108.255 61.863 107.901 62.2037 107.266 62.661C106.678 63.0904 106.319 63.305 106.188 63.305H105.838C105.745 63.2304 105.703 63.137 105.712 63.025L106.076 54.877L106.146 49.431L106.216 49.473C106.253 49.473 106.309 49.4637 106.384 49.445C106.468 49.4264 106.533 49.417 106.58 49.417C106.851 49.5104 106.963 49.6597 106.916 49.865L107.28 52.469L107.7 57.957L108.33 61.639ZM116.327 61.023L115.893 61.177H114.437L113.947 61.261L112.113 61.597L111.399 61.905V62.605L111.511 63.053V63.305H110.895L110.671 62.773V62.003H110.181L110.055 61.891C110.101 61.7697 110.26 61.625 110.531 61.457L110.545 59.133C110.545 58.713 110.526 58.1297 110.489 57.383C110.461 56.823 110.423 56.2397 110.377 55.633C110.339 55.0917 110.321 54.8584 110.321 54.933V54.163C110.321 54.2284 110.321 54.1817 110.321 54.023C110.33 53.8644 110.339 53.645 110.349 53.365L110.405 50.523C110.405 50.3457 110.442 50.2104 110.517 50.117C110.554 50.0984 110.643 50.0517 110.783 49.977C110.839 49.949 110.932 49.935 111.063 49.935L112.771 49.305C112.929 49.3704 113.009 49.4684 113.009 49.599C113.018 50.187 112.995 50.6864 112.939 51.097C112.901 51.3957 112.757 52.3664 112.505 54.009C112.327 55.1757 112.239 55.8104 112.239 55.913V56.389L111.497 61.037C111.515 61.065 111.543 61.079 111.581 61.079L115.977 57.971C116.061 57.971 116.117 57.9944 116.145 58.041C116.266 58.545 116.327 58.8717 116.327 59.021V61.023ZM124.251 61.023L123.817 61.177H122.361L121.871 61.261L120.037 61.597L119.323 61.905V62.605L119.435 63.053V63.305H118.819L118.595 62.773V62.003H118.105L117.979 61.891C118.026 61.7697 118.185 61.625 118.455 61.457L118.469 59.133C118.469 58.713 118.451 58.1297 118.413 57.383C118.385 56.823 118.348 56.2397 118.301 55.633C118.264 55.0917 118.245 54.8584 118.245 54.933V54.163C118.245 54.2284 118.245 54.1817 118.245 54.023C118.255 53.8644 118.264 53.645 118.273 53.365L118.329 50.523C118.329 50.3457 118.367 50.2104 118.441 50.117C118.479 50.0984 118.567 50.0517 118.707 49.977C118.763 49.949 118.857 49.935 118.987 49.935L120.695 49.305C120.854 49.3704 120.933 49.4684 120.933 49.599C120.943 50.187 120.919 50.6864 120.863 51.097C120.826 51.3957 120.681 52.3664 120.429 54.009C120.252 55.1757 120.163 55.8104 120.163 55.913V56.389L119.421 61.037C119.44 61.065 119.468 61.079 119.505 61.079L123.901 57.971C123.985 57.971 124.041 57.9944 124.069 58.041C124.191 58.545 124.251 58.8717 124.251 59.021V61.023ZM128.522 61.639C128.448 61.863 128.093 62.2037 127.458 62.661C126.87 63.0904 126.511 63.305 126.38 63.305H126.03C125.937 63.2304 125.895 63.137 125.904 63.025L126.268 54.877L126.338 49.431L126.408 49.473C126.446 49.473 126.502 49.4637 126.576 49.445C126.66 49.4264 126.726 49.417 126.772 49.417C127.043 49.5104 127.155 49.6597 127.108 49.865L127.472 52.469L127.892 57.957L128.522 61.639ZM138.535 56.697C138.535 56.8557 138.423 57.229 138.199 57.817C137.928 58.5264 137.7 59.0444 137.513 59.371C137.27 59.819 136.925 60.2904 136.477 60.785C135.758 61.5877 135.119 62.059 134.559 62.199C134.494 62.2177 134.433 62.3157 134.377 62.493C134.321 62.6797 134.293 62.8197 134.293 62.913V63.207L134.195 63.319H133.901C133.882 63.319 133.663 63.1884 133.243 62.927C131.507 61.8537 130.541 60.5004 130.345 58.867L130.289 57.117L130.583 55.787C130.807 55.1617 131.012 54.471 131.199 53.715C131.311 53.267 131.717 52.609 132.417 51.741C133.154 50.817 133.71 50.355 134.083 50.355C134.139 50.355 134.2 50.3877 134.265 50.453L134.349 49.375C134.368 49.375 134.405 49.3657 134.461 49.347C134.517 49.3284 134.559 49.319 134.587 49.319C134.727 49.319 134.942 49.389 135.231 49.529C135.371 49.6597 135.572 49.837 135.833 50.061C136.869 50.9477 137.662 52.2124 138.213 53.855L138.535 55.367V56.697ZM136.757 55.563C136.71 54.919 136.491 54.2424 136.099 53.533C135.744 52.889 135.31 52.3244 134.797 51.839C134.676 51.783 134.554 51.7224 134.433 51.657C134.274 51.5637 134.195 51.4704 134.195 51.377V51.069C133.131 52.0957 132.492 53.309 132.277 54.709L132.039 56.263L131.941 56.683V57.817C131.941 58.2277 132.095 58.7504 132.403 59.385C132.72 60.0477 133.042 60.4724 133.369 60.659C133.612 60.799 134.064 60.9577 134.727 61.135L134.587 61.471C135.138 61.0137 135.609 60.3837 136.001 59.581C136.374 58.825 136.608 58.069 136.701 57.313C136.776 56.6877 136.794 56.1044 136.757 55.563ZM147.326 60.729L145.366 63.319L141.838 54.527L141.866 55.367L143.308 62.633L142.86 62.787H142.566L141.082 63.263C141.054 63.2724 140.961 63.235 140.802 63.151C140.821 63.0017 140.83 62.2737 140.83 60.967C140.83 60.7897 140.821 60.5284 140.802 60.183C140.793 59.8284 140.788 59.5624 140.788 59.385C140.788 58.8157 140.765 57.4717 140.718 55.353C140.662 52.8984 140.611 51.517 140.564 51.209H140.956L145.17 57.901C145.18 57.8544 145.184 57.775 145.184 57.663C145.184 57.383 145.133 56.7297 145.03 55.703C144.974 55.0217 144.9 54.205 144.806 53.253L144.372 50.383C144.372 50.3457 144.396 50.271 144.442 50.159C144.629 50.075 144.993 49.9257 145.534 49.711C146.206 49.4497 146.617 49.319 146.766 49.319C146.822 49.319 146.878 49.3704 146.934 49.473C147 49.5664 147.032 49.641 147.032 49.697C147.023 49.8184 146.972 50.145 146.878 50.677C146.757 51.405 146.668 52.021 146.612 52.525L145.926 58.797C145.926 59.0584 146.113 59.3944 146.486 59.805L147.326 60.729Z" fill="#351700"></path></svg> 